VIDEO INFO:


Format                           : Matroska
File size                        : 4.37 GiB
Duration                         : 1h 46mn
Overall bit rate                 : 5 884 Kbps
Encoded date                     : UTC 2011-07-15 16:48:54
Writing application              : mkvmerge v4.9.1 ('Ich will') gemaakt op Jul 11 2011 23:53:15
Writing library                  : libebml v1.2.1 + libmatroska v1.1.1

Video
ID                               : 2
Format                           : AVC
Format/Info                      : Advanced Video Codec
Format profile                   : Main@L4.1
Format settings, CABAC           : Yes
Format settings, ReFrames        : 4 frames
Muxing mode                      : Header stripping
Codec ID                         : V_MPEG4/ISO/AVC
Duration                         : 1h 46mn
Bit rate                         : 5 383 Kbps
Width                            : 1 280 pixels
Height                           : 704 pixels
Display aspect ratio             : 16:9
Frame rate                       : 23.976 fps
Color space                      : YUV
Chroma subsampling               : 4:2:0
Bit depth                        : 8 bits
Scan type                        : Progressive
Bits/(Pixel*Frame)               : 0.249
Stream size                      : 4.00 GiB (91%)
Language                         : English

Audio
ID                               : 1
Format                           : AC-3
Format/Info                      : Audio Coding 3
Mode extension                   : CM (complete main)
Muxing mode                      : Header stripping
Codec ID                         : A_AC3
Duration                         : 1h 46mn
Bit rate mode                    : Constant
Bit rate                         : 384 Kbps
Channel(s)                       : 2 channels
Channel positions                : Front: L R
Sampling rate                    : 48.0 KHz
Bit depth                        : 16 bits
Compression mode                 : Lossy
Stream size                      : 292 MiB (7%)

Text
ID                               : 3
Format                           : UTF-8
Codec ID                         : S_TEXT/UTF8
Codec ID/Info                    : UTF-8 Plain Text

---------------------------

Verenigde Staten
Komedie / Horror
105 minuten

geregisseerd door Joe Dante
met Zach Galligan, Phoebe Cates en Christopher Lee

Een paar jaar na de gebeurtenissen in Gremlins wonen Billy en Kate in New York, waar ze werken voor de triljonair Daniel Clamp. Maar als op een gegeven moment de Mogwai Gizmo weer in handen komt van Billy, moet deze zorgen dat niemand het kleine wezentje te zien krijgt. Als de kleine Mogwai echter nat wordt, ontstaan er plotseling een hele hoop smerige Gremlins. En terwijl Billy en Kate proberen om deze gruwelijke wezentjes te stoppen, maken de kleine monsters een grote puinhoop van het grote kantoorgebouw van Clamp.

- Ondertiteling in het Nederlands, zit in de film met mogelijkheid deze aan of uit te zetten.